<svg xmlns="http://www.w3.org/2000/svg" viewBox="0 0 100 100"><defs><style>.cls-1{fill:#370665;}.cls-2{fill:#fc9918;}.cls-3{fill:#35589a;}.cls-4{fill:#f14a16;}</style></defs><g id="Слой_2" data-name="Слой 2"><g id="Слой_1-2" data-name="Слой 1"><path class="cls-1" d="M50,0A50,50,0,0,1,98.8,39.07,65.63,65.63,0,0,1,74,43c-17.77-.73-25.24-8.8-42-10-7-.5-17.45,0-30.76,5.9A50,50,0,0,1,50,0Z"/><path class="cls-2" d="M50,100a49.72,49.72,0,0,1-28.7-9.06A80.35,80.35,0,0,1,38,89c8.88-.09,13.26,1.37,24,2a142.49,142.49,0,0,0,16.58,0A49.74,49.74,0,0,1,50,100Z"/><path class="cls-3" d="M98.8,39.07a50.26,50.26,0,0,1-1.11,26A134.26,134.26,0,0,1,71,67c-15-.41-21.68-3.13-36-4A139.8,139.8,0,0,0,2.28,65a50.22,50.22,0,0,1-1-26.05C14.55,33,25,32.5,32,33c16.76,1.2,24.23,9.27,42,10A65.63,65.63,0,0,0,98.8,39.07Z"/><path class="cls-4" d="M62,91c-10.74-.63-15.12-2.09-24-2a80.35,80.35,0,0,0-16.7,1.94,50,50,0,0,1-19-26A139.8,139.8,0,0,1,35,63c14.32.87,21,3.59,36,4a134.26,134.26,0,0,0,26.69-2A50,50,0,0,1,78.58,91,142.49,142.49,0,0,1,62,91Z"/></g></g></svg>